<svg xmlns="http://www.w3.org/2000/svg" version="1.1" xmlns:xlink="http://www.w3.org/1999/xlink" xmlns:svgjs="http://svgjs.dev/svgjs" width="1440" height="560" preserveAspectRatio="none" viewBox="0 0 1440 560"><g mask="url(&quot;#SvgjsMask1324&quot;)" fill="none"><rect width="1440" height="560" x="0" y="0" fill="url(&quot;#SvgjsLinearGradient1325&quot;)"></rect><path d="M1440 0L1206.48 0L1440 73.26z" fill="rgba(255, 255, 255, .1)"></path><path d="M1206.48 0L1440 73.26L1440 257.61L921.7 0z" fill="rgba(255, 255, 255, .075)"></path><path d="M921.7 0L1440 257.61L1440 318.8L569.28 0z" fill="rgba(255, 255, 255, .05)"></path><path d="M569.28 0L1440 318.8L1440 359.89L329.55999999999995 0z" fill="rgba(255, 255, 255, .025)"></path><path d="M0 560L411 560L0 453.67z" fill="rgba(0, 0, 0, .1)"></path><path d="M0 453.67L411 560L521.64 560L0 359.21000000000004z" fill="rgba(0, 0, 0, .075)"></path><path d="M0 359.21000000000004L521.64 560L663.47 560L0 237.50000000000006z" fill="rgba(0, 0, 0, .05)"></path><path d="M0 237.5L663.47 560L1185.74 560L0 113.09z" fill="rgba(0, 0, 0, .025)"></path></g><defs><mask id="SvgjsMask1324"><rect width="1440" height="560" fill="#ffffff"></rect></mask><linearGradient x1="15.28%" y1="-39.29%" x2="84.72%" y2="139.29%" gradientUnits="userSpaceOnUse" id="SvgjsLinearGradient1325"><stop stop-color="#0e2a47" offset="0"></stop><stop stop-color="rgba(241, 116, 31, 1)" offset="1"></stop></linearGradient></defs></svg>